<?xml version="1.0" encoding="utf-8"?>
<!-- Generator: Adobe Illustrator 25.0.1, SVG Export Plug-In . SVG Version: 6.00 Build 0)  -->
<svg version="1.1" id="Слой_1" xmlns="http://www.w3.org/2000/svg" xmlns:xlink="http://www.w3.org/1999/xlink" x="0px" y="0px"
	 viewBox="0 0 3051.7 2000" style="enable-background:new 0 0 3051.7 2000;" xml:space="preserve">
<style type="text/css">
	.st0{opacity:0.6;fill:#FFFCEE;}
	.st1{fill:#A837F6;}
	.st2{fill:#BE73F9;}
	.st3{fill:#3F964F;}
	.st4{fill:#F9E9A7;}
	.st5{fill:#6985DB;}
	.st6{fill:#95A6DB;}
	.st7{fill:#DE623C;}
	.st8{fill:#0E6A41;}
	.st9{fill:#C4204A;}
	.st10{fill:#E62552;}
	.st11{fill:#F5A3B7;}
	.st12{fill:#F37A50;}
	.st13{fill:#FFFFFF;}
	.st14{fill:#2C2858;}
	.st15{fill:#332E66;}
	.st16{fill:#AFE3B8;}
	.st17{fill:#293789;}
	.st18{fill:#4450A8;}
	.st19{fill:#0B5434;}
	.st20{fill:#241D26;}
	.st21{fill:#E4E2E8;}
	.st22{fill:#062440;}
	.st23{fill:#33BE86;}
	.st24{fill:#FFD700;}
</style>
<path class="st0" d="M78.1,1501.7C-8,1327.9-37.4,854.7,329.5,766.6c345-82.8-57.5-374.3,414.6-605.3
	c172.4-84.4,466.8,75.6,612.7,11c242.9-107.6,577.1-178.7,779.5,38.3C2377.5,469.2,2607,62.9,2868.3,319
	c187.1,183.4,88,379.6,45.8,522c-29.5,99.6,10.2,197.4,71.6,277.8c99.2,129.7,41.4,290.8-22,425.6
	C2963.7,1544.4,78.1,1501.7,78.1,1501.7z"/>
<g>
	<path class="st1" d="M2557.8,1325.6c0,0,14.9,6.3,33.7,13.8c21.6-38.2,202.8-263.2,415.3-298.2c-69.4-9.3-141.4-3-206.4,23.8
		c-13,5.3-25.5,11.3-37.5,17.8l-16.6,38.4l-15.1-19C2653.2,1154.7,2591.1,1239.2,2557.8,1325.6z"/>
	<g>
		<path class="st2" d="M2579.3,1277.8c-0.8,1.6-1.6,3.1-2.4,4.6C2577.7,1280.8,2578.5,1279.3,2579.3,1277.8z"/>
		<path class="st2" d="M3006.8,1041.2c-16.8,116.3-222.4,305.6-365.3,319c-15.1-4.8-33.2-14.2-50-20.8
			C2613.1,1301.2,2794.3,1076.2,3006.8,1041.2z"/>
	</g>
</g>
<g>
	<path class="st1" d="M2611.1,1343.9c0,0,8.3,9.2,19,20.4c27.7-19.2,228.7-114.8,388.8-70c-45.5-28.8-97.9-47.8-152.2-50.6
		c-10.8-0.6-21.6-0.5-32.1,0.1l-28.5,3C2734.2,1257.6,2662.9,1295.4,2611.1,1343.9z"/>
	<g>
		<path class="st3" d="M2641.9,1318c-1.1,0.8-2.1,1.6-3.2,2.4C2639.7,1319.6,2640.8,1318.9,2641.9,1318z"/>
		<path class="st2" d="M3018.8,1294.2c-10.7,12.5-28.2,27.5-50,42.9l-44.5-9.3l15.1,28.6c-75.8,46.4-182.2,87.5-253.3,62.2
			c-9-8.2-46.6-44.4-56.1-54.4C2657.7,1345.1,2858.7,1249.5,3018.8,1294.2z"/>
	</g>
</g>
<g>
	<path class="st1" d="M1932.7,885.5c0,0-13.6,31.8,18.2,82.8c32.5,52,31.3,90.6,31.3,90.6l26.7,18.5c0,0-1.1-58.5-29.2-99
		C1944.6,927.7,1932.7,885.5,1932.7,885.5z"/>
	<path class="st1" d="M1861.5,909.7c0,0-2,25.4,31.4,57.2c34.1,32.3,42.1,60.7,42.1,60.7l22.2,14.3c0,0-13.8-47.8-42.3-72.6
		C1879.3,938.4,1861.5,909.7,1861.5,909.7z"/>
	<path class="st1" d="M1992,937.3c0,0,24,13.3,44.7,74.8c16.9,50.1,7.9,78.2,18.4,108.9l-35.2-30.9c-4.2-22.1,8.6-38.3-4.5-84.5
		C2003.2,962.3,1992,937.3,1992,937.3z"/>
	<path class="st1" d="M2212.2,1107c0,0,12.5,24.5-4.6,87c-14,51-38.9,60.2-42.7,72l-13.6-23.6c11.7-20.7,27.4-19.9,42.3-65.6
		C2207.6,1133.9,2212.2,1107,2212.2,1107z"/>
	<path class="st1" d="M2048.2,971.3c0,0,20,42.9,26.4,70.9c9.2,39.8-4.5,63,2,104.3l25,24.7c0,0,15.1-45.6,1.8-94.2
		C2081.1,995.3,2048.2,971.3,2048.2,971.3z"/>
	<path class="st1" d="M2127.4,984.1c-1.7,26.5,0.4,53.1,6.4,78.9c18.6,78.2-17,142.7-17,142.7l18.2,14.1c0,0,46.9-47.2,29.4-112.5
		C2145.9,1038.5,2127.4,984.1,2127.4,984.1z"/>
	<path class="st1" d="M2022.2,1095.5c0,0-19.4-4.7-96.2,13.5c-49.2,11.6-36.6-8.8-82.1,10.4c36.1-0.6,51.1,24.2,97.5,16
		c37.1-6.6,74.6-10.2,112.3-10.9L2022.2,1095.5z"/>
	<path class="st1" d="M1876.7,1162c0,0,34.6,35.2,103.1,23c42.2-7.4,85.3-7.9,127.6-1.3l-24.5-32.6c0,0-30.8-17.7-100.8,1.8
		C1934,1166.4,1876.7,1162,1876.7,1162z"/>
	<path class="st1" d="M1924.8,1223.3c0,0,34.6,35.2,103.1,23c42.2-7.4,85.3-7.9,127.6-1.3l-24.5-32.6c0,0-30.8-17.7-100.8,1.8
		C1982.1,1227.6,1924.8,1223.3,1924.8,1223.3z"/>
	<path class="st1" d="M1814.6,1040.9c0,0,24.1,17.6,67.1,8.3c43.6-9.5,77-3.5,77-3.5l-13.8-11.7c0,0-19.5-11.2-63.7,1.1
		C1850.8,1043.6,1814.6,1040.9,1814.6,1040.9z"/>
	<path class="st1" d="M1979.7,1065c0,0-34.3,0.2-83.8,9.8c-31.2,6-75.1-8.5-75.1-8.5s37.1,41.7,83.5,29.8
		c53.2-13.7,107.3-12.1,107.3-12.1L1979.7,1065z"/>
	<path class="st1" d="M1948.8,1038.9c0,0-32.9-41.3-81.2-45c-28.6-2.5-56.6-9.7-82.8-21.4c0,0,31,42.9,75.7,41.6
		c41.3-1.1,72.5,22.9,72.5,22.9L1948.8,1038.9z"/>
	<path class="st1" d="M2161.2,1267.2l6.8-3.7c-23-41.9-120.6-175.7-232-235.8l-3.7,6.8C2042.2,1093.8,2138.5,1225.8,2161.2,1267.2z"
		/>
</g>
<g>
	<path class="st1" d="M1387.9,965.6c-16.3-43.5-6.6-90.6,29-141.5C1429.6,884.9,1419.9,932,1387.9,965.6z"/>
	<path class="st1" d="M1447.1,898.1c-8.7-41.4,6.5-82.6,45.6-123.5C1495.8,831.2,1480.6,872.3,1447.1,898.1z"/>
	<path class="st1" d="M1509.6,832.5c-2.4-40.1,17.7-76.7,60.1-109.6C1564.8,776.4,1544.8,812.9,1509.6,832.5z"/>
	<path class="st1" d="M1646.7,698.2c-13.6,43.4-36.6,70.1-69.1,80.2C1582.7,744.6,1605.8,717.9,1646.7,698.2z"/>
	<path class="st1" d="M1708.4,699.4c-17.6,33.8-40.5,52.3-68.8,55.8C1648.9,728.2,1671.8,709.6,1708.4,699.4z"/>
	<path class="st1" d="M1667.4,765.9c18.2-21.9,46.3-31,84.2-27.5C1723.1,763.7,1695,772.8,1667.4,765.9z"/>
	<path class="st1" d="M1541,953c-52.3,34.5-100.1,43-143.5,25.3C1432.1,946.9,1480,938.5,1541,953z"/>
	<path class="st1" d="M1506.3,862.8c35.5-14.5,74.6-7.6,117.5,20.6C1573.9,895.3,1534.7,888.4,1506.3,862.8z"/>
	<path class="st1" d="M1659,841.4c-43.4,10.4-77.4,4.4-102.2-17.9C1587.6,810.8,1621.7,816.8,1659,841.4z"/>
	<path class="st1" d="M1615,793.9c30.8-12.5,64.9-6.6,102.2,17.9C1673.8,822.2,1639.8,816.2,1615,793.9z"/>
	<path class="st1" d="M1345.3,1048.6c57.2-95.2,57.3-86,101.2-137.8c11.9-14,23.9-27,36.1-39.1c25.3-24.4,53.2-45.9,83.2-64.3
		c34.7-22.2,62.7-35.2,84.2-38.8l2.4-1.5c0.5-0.7,1.4-0.9,2.2-0.5c0.8-0.1,1.6,0.1,2.3,0.7c0.5,0.7,0.7,1.6,0.8,2.4
		c0.1,0.8-0.2,1.6-0.7,2.3l-1.2,1.3c-0.7,0.4-1.6,0.7-2.4,0.9l-0.1,0.4l-1.9,0.1c-20.8,4-48.1,16.7-81.8,38.1
		c-29.5,18.4-57,39.9-81.8,64.2c-12.6,12.1-24.6,24.8-35.9,38.2l-2.9,3.5c35.1-23.3,78.9-24.5,131.3-3.4c-51.2,23.8-95,25-131.3,3.4
		c-42.9,51.2-41.7,40.4-97.4,133.3L1345.3,1048.6z"/>
</g>
<g>
	<path class="st2" d="M1651.6,1050.6l-75.8-6.2l46,34.9c0,0-56.4,110.2-229.1,129.2c-18.3-5.5-42.5-14.3-62.9-22
		c-22.9-8.7-41-16.1-41-16.1s16.3-275,423.5-228.7C1685.2,1008.9,1651.6,1050.6,1651.6,1050.6z"/>
	<path class="st1" d="M1712.3,937.5c-256.4,46.6-357.1,198.2-382.5,244.8c-22.9-8.7-41-16.1-41-16.1s-15.9-78.5,49.4-144.4
		C1396,963.8,1521.4,915.8,1712.3,937.5z"/>
</g>
<g>
	<path class="st1" d="M1255.8,1194.2c0,0-13.8,1.1-30.9,2c-7.1-36.7-92.3-267.7-254.4-353.7c58.6,11.4,115,36,160.3,75.3
		c9,7.8,17.5,16,25.5,24.6l3,35.5l17.4-11.3C1225.2,1030.3,1252.4,1115.4,1255.8,1194.2z"/>
	<g>
		<path class="st3" d="M1251.5,1149.7c0.2,1.5,0.5,2.9,0.7,4.4C1251.9,1152.7,1251.7,1151.2,1251.5,1149.7z"/>
		<path class="st2" d="M970.5,842.5c-18,98.5,96.6,307.3,208.4,356.9c13.5,0.2,30.7-2.4,46-3.2
			C1217.8,1159.5,1132.6,928.6,970.5,842.5z"/>
	</g>
</g>
<g>
	<path class="st1" d="M1196.1,1193c0,0-12.6,7.2-28.5,15.8c-23.2-31.8-208.1-213.2-401-222.2c60.8-15.5,125.6-17.4,186.3-0.4
		c12.1,3.3,23.9,7.4,35.3,11.9l30.3,13.9C1093.3,1050.9,1157.5,1119.6,1196.1,1193z"/>
	<g>
		<path class="st3" d="M1172,1152.7c0.9,1.3,1.7,2.6,2.6,3.9C1173.8,1155.3,1172.9,1154,1172,1152.7z"/>
		<path class="st2" d="M766.6,986.7c31.6,79.9,190.2,265.4,318.8,262.4c12.9-5.8,67.9-32.5,82.1-40.2
			C1144.4,1177.1,959.5,995.7,766.6,986.7z"/>
	</g>
</g>
<path class="st4" d="M3022.4,1577.4c0,153.1-328,285.9-808.2,351.9h0c-38.3,5.3-77.5,10.1-117.6,14.5c-1.9,0.2-3.8,0.4-5.7,0.6
	c-4.8,0.5-9.6,1-14.4,1.5c-23,2.4-46.3,4.7-69.8,6.8c-19.8,1.8-39.7,3.5-59.8,5c-7,0.6-14.1,1.1-21.1,1.6c-2.8,0.2-5.5,0.4-8.3,0.6
	c-2.3,0.2-4.6,0.3-7,0.5c-7.6,0.5-15.2,1.1-22.8,1.6c-116,7.6-237.3,11.7-362.2,11.7c-826.7,0-1496.9-177.4-1496.9-396.2
	c0-218.8,670.2-396.2,1496.9-396.2C2352.2,1181.2,3022.4,1358.6,3022.4,1577.4z"/>
<g>
	<g>
		<path d="M671.5,1460.5c56.7,8.4,92.4-70.3,136.1-24.6c-86.4,88.9-121.4,126.6-121.4,126.6c-10.4-10.2-37.7-40.6-45.5-52
			L671.5,1460.5z"/>
		<path d="M724.4,1514.6c56.7,8.4,92.4-70.3,136.1-24.6c-86.4,88.9-121.4,126.6-121.4,126.6c-10.4-10.2-37.7-40.6-45.5-52
			L724.4,1514.6z"/>
		<g>
			<path class="st5" d="M265.5,1444.3l31.5-7.9l120.2-68.4c33.9-19.3,75.9-19.8,110.3-1.5l154.9,101.1l-52.6,70.8l-147.5-80.2
				l-131.2,99c-22.2,16.7-46.6,30.2-72.4,40.3L265.5,1444.3z"/>
		</g>
		<path class="st6" d="M122.9,1539l6.3,35.5c9.7,54.2,61,92.3,118.1,87.8l0,0c58.7-4.6,114.7-25.7,161-60.6l131.2-99l147.5,80.2
			l52.6-70.8l-154.9-101.1c-34.4-18.3-76.4-17.7-110.3,1.5L354.3,1481L122.9,1539z"/>
		<g>
			<polygon class="st7" points="446.8,1242.4 429.1,1246.5 419.6,1214.3 442.3,1199.8 			"/>
			<path class="st8" d="M419.9,1205.9l-112.8,36.6c0,0-37.9,11.1-33.2,76.9c31.3,11.9,67.3,8.4,162-64.2
				C427.6,1240.3,419.9,1205.9,419.9,1205.9z"/>
			<g>
				<path class="st9" d="M454,1272L454,1272c-6.3,0.1-11.4-4.9-11.5-11.1l-1.5-90c-0.1-6.3,4.9-11.4,11.1-11.5l0,0
					c6.3-0.1,11.4,4.9,11.5,11.1l1.5,90C465.3,1266.7,460.3,1271.9,454,1272z"/>
				<path class="st10" d="M485.8,1123.8c0.1,3.6-0.2,7.3-0.8,11.1c-3.4,21.4-16.8,43.5-33.4,43.1c-16.3-0.3-29.3-21-33.2-41.9
					c-0.7-3.8-1.1-7.5-1.1-11.2c0-0.4,0-0.9,0-1.3c0.1-23.4,15-42.4,33.5-42.7c18.6-0.3,34.1,18.3,35,41.8
					C485.8,1123.1,485.8,1123.4,485.8,1123.8z"/>
				<g>
					<path class="st11" d="M485.8,1123.8c0.1,3.6-0.2,7.3-0.8,11.1l-9.3-9.8l-8.3,10.2c-0.8,1-2,1.6-3.3,1.6H464
						c-1.3,0-2.5-0.5-3.3-1.4l-9.3-10l-8.5,10.3c-0.8,1-2,1.6-3.3,1.6c-1.3,0-2.5-0.5-3.4-1.5l-9.1-10l-8.6,10.3
						c-0.7-3.8-1.1-7.5-1.1-11.2c0-0.4,0-0.9,0-1.3l6.2-7.4c0.8-1,2-1.6,3.3-1.6c1.3,0,2.5,0.5,3.4,1.5l9.1,10l8.5-10.2
						c0.8-1,2-1.6,3.3-1.6c1.3,0,2.5,0.5,3.4,1.4l9.3,10l8.2-10.2c0.8-1,2-1.6,3.3-1.6c1.3-0.1,2.5,0.4,3.4,1.4l7.2,7.6
						C485.8,1123.1,485.8,1123.4,485.8,1123.8z"/>
				</g>
			</g>
			<path class="st12" d="M454.4,1230.1c0.6-0.5,0.9-0.9,1.6-1.1c0,0-0.1-0.3-0.4-0.3c-5.1-4.6-6.5-11.6-2.9-15
				c0.6-0.5,1.2-1,1.8-1.5c-2-3.9-2-8.3,0.3-10.7c0.9-0.9,2.2-1.6,3.5-2c-2.4-3.8-2.4-8.2,0.5-11.5c3.5-3.8,9.8-3.5,14,0.6
				c4.3,4.1,5,10.1,1.9,13.8c-0.9,0.9-1.8,1.5-3.2,1.9c4,4.5,4.8,10.5,1.9,13.8c-0.6,0.5-1.2,1-1.8,1.5c2,3.9,2,8.3-0.3,10.7
				c-0.9,0.9-2.2,1.6-3.2,1.9c2.2,3.1,2.2,7.5-0.1,9.9c-2.9,3.3-8.1,2.7-11.8-0.4C452.5,1238.7,451.9,1233.3,454.4,1230.1z"/>
			<path class="st12" d="M451.7,1196.2c-2.1,5.5-6.9,8.8-10.7,7.3c-3.8-1.5-5.2-7.1-3.1-12.6c2.1-5.5,6.9-8.8,10.7-7.3
				C452.5,1185.1,453.8,1190.7,451.7,1196.2z"/>
		</g>
		<g>
			<polygon class="st12" points="220.7,1134.1 212,1177.5 287.7,1195.2 290.5,1149.6 			"/>
			<path class="st12" d="M155.9,1070c29.4,71,129.5,90.9,154.2,86.9c59.6-9.7,77.2-99.4,47.8-170.4c-29.4-71-90.3-92-146.1-68.9
				C156.1,940.7,126.5,999,155.9,1070z"/>
			<path d="M343.7,1018.4c0.3,5.4,4.9,9.5,10.3,9.2c5.4-0.3,9.5-4.9,9.2-10.3c-0.3-5.4-4.9-9.5-10.3-9.2
				C347.6,1008.4,343.4,1013,343.7,1018.4z"/>
			<path d="M278,1045.2c4.3,3.8,10.8,3.4,14.6-0.8c3.8-4.3,3.4-10.8-0.8-14.6c-4.3-3.8-10.8-3.4-14.6,0.8
				C273.4,1034.8,273.8,1041.4,278,1045.2z"/>
			<path class="st13" d="M363.8,1093.7c1.4-2.4,0-5.7-2.3-5.4c-5.8,0.8-15.3,1.9-24.3,1.8c-9.1-0.1-18.5-1.5-24.3-2.4
				c-2.3-0.4-3.8,2.9-2.4,5.3c4.1,7.3,12.5,18.5,26.4,18.7C350.8,1111.9,359.6,1101,363.8,1093.7z"/>
			<path class="st7" d="M332.3,1039.5c0,0,15.7,7.4,24.6,10.6c5.7,8.6-9.1,22.4-19.7,21.9c7.4-9.6,7.6-17.5,7.6-17.5L332.3,1039.5z"
				/>
			<path d="M214.9,985c35.6,14.4,144,8.3,116-23.5c34,13.9,63.9-3.5,50.2-24c-13.6-20.5-61.9-42-98.3-32.9
				c-34.4-16.7-91.3-23.8-141.3,36.9c-50,60.6-15.4,182.8,79.2,192.6c-6.6-9.5-18.8-25-22.3-42c-3.5-17,19-20,19.5-40.1L214.9,985z"
				/>
			<g>
				<path class="st12" d="M211.8,1042.6c15.5,9.3,21.9,27.1,14.3,39.8c-7.6,12.7-26.3,15.4-41.8,6.2c-15.5-9.3-21.9-27.1-14.3-39.8
					C177.5,1036.1,196.3,1033.3,211.8,1042.6z"/>
				<g>
					<path class="st7" d="M208.3,1081.2c0.5-0.3,0.9-0.8,1.2-1.3c4.6-7.9,4.1-16.1-1.3-21.9c-5.5-6-14.6-7.9-21.6-4.6
						c-2,0.9-2.8,3.3-1.9,5.3c0.9,2,3.3,2.8,5.3,1.9c3.8-1.8,9.3-0.6,12.4,2.8c3,3.2,3.1,7.7,0.3,12.6c-1.1,1.9-0.4,4.3,1.4,5.4
						C205.5,1082.1,207.1,1082,208.3,1081.2z"/>
				</g>
			</g>
			<g>
				<path d="M259.4,1031.2c-0.6,0-1.3-0.1-1.9-0.3c-2.9-1-4.3-4.2-3.3-7.1c4.1-11.2,13.1-18.6,24.2-19.9c3-0.4,5.8,1.8,6.1,4.8
					c0.4,3-1.8,5.8-4.8,6.1c-2.6,0.3-11.2,2.1-15.1,12.7C263.8,1029.8,261.7,1031.2,259.4,1031.2z"/>
			</g>
			<g>
				<path d="M366.8,999.7c0.4-0.4,0.8-0.9,1.1-1.5c1.3-2.6,0.3-5.8-2.3-7.1c-10.2-5.2-21.4-4.5-30,1.9c-2.4,1.7-2.9,5-1.1,7.4
					c1.7,2.4,5,2.9,7.4,1.1c2-1.5,9.3-5.9,19-1C362.9,1001.6,365.2,1001.2,366.8,999.7z"/>
			</g>
		</g>
		<path class="st3" d="M121.2,1556.5c-17.5-142.4-14.2-304.7,88.2-389.6l84.8,21.8c16.7,4.8,27.6,31.7,30.4,48.1l5.1,170.7
			l29.7,73.9L121.2,1556.5z"/>
		<g>
			<g>
				<path class="st9" d="M518.5,1329.2L518.5,1329.2c-7.2-2-11.4-9.5-9.3-16.7l29.3-103.6c2-7.2,9.5-11.4,16.7-9.3l0,0
					c7.2,2,11.4,9.5,9.3,16.7l-29.3,103.6C533.2,1327,525.7,1331.2,518.5,1329.2z"/>
				<path class="st10" d="M606,1170.3c-1.2,4.1-2.8,8.3-4.7,12.4c-11.2,23.3-34.2,44-53.1,37.9c-18.5-6-26.4-34.2-23.5-59.4
					c0.5-4.5,1.3-9,2.5-13.2c0.1-0.5,0.3-1,0.4-1.5c8.2-26.7,31.7-43.4,53.1-37.3c21.5,6.1,32.8,32.8,25.6,60
					C606.3,1169.5,606.1,1169.9,606,1170.3z"/>
				<g>
					<path class="st11" d="M606,1170.3c-1.2,4.1-2.8,8.3-4.7,12.4l-7.3-14.5l-13,8.8c-1.3,0.9-2.9,1.1-4.4,0.7l-0.1,0
						c-1.5-0.4-2.7-1.4-3.3-2.8l-7.2-14.7l-13.3,8.8c-1.3,0.9-2.9,1.1-4.4,0.7c-1.5-0.4-2.7-1.4-3.4-2.8l-7-14.6l-13.4,8.8
						c0.5-4.5,1.3-9,2.5-13.2c0.1-0.5,0.3-1,0.4-1.5l9.7-6.3c1.3-0.8,2.9-1.1,4.4-0.7c1.5,0.4,2.7,1.4,3.4,2.8l7,14.5l13.2-8.8
						c1.3-0.8,2.8-1.1,4.3-0.7c1.5,0.4,2.7,1.4,3.4,2.8l7.2,14.6l12.9-8.8c1.3-0.9,2.8-1.1,4.3-0.8c1.5,0.4,2.7,1.4,3.4,2.8
						l5.6,11.1C606.3,1169.5,606.1,1169.9,606,1170.3z"/>
				</g>
			</g>
			<g id="c_11_">
				<path class="st12" d="M484.1,1283.5l21.5-15.1c0,0,0.6-32.3,25.6-34.3l-4.7,18.1c0,0,22.9-13.6,32.7-17.8
					c14.5-6.2,30.3,35.9,5.9,56.8c-17.5,15-23.2,13.2-39.1,16.6c-12.9,2.8-18,8.3-18,8.3L484.1,1283.5z"/>
			</g>
		</g>
		<path class="st8" d="M195.5,1195.9c-45.5,52.2,11,185.5,130.6,232.2c30.8-27.1,24.3-82,24.3-82s-8.5-11.6-50.5-87.7
			C254.1,1175.3,215.6,1172.8,195.5,1195.9z"/>
		<path class="st8" d="M488.4,1270.4L362.2,1342c0,0-52.2,17.5-36.1,86.1c35.1,7.3,99.8-15.7,187.5-108.4
			C502.3,1305.3,488.4,1270.4,488.4,1270.4z"/>
	</g>
	<g>
		<path class="st14" d="M501.1,1116.1c-1.8,0-3.3-1.4-3.5-3.2c-1.5-19.8-9.2-33.6-22.8-41c-10.1-5.5-19.8-5.3-19.9-5.3
			c-1.9,0.1-3.5-1.5-3.6-3.4c-0.1-1.9,1.5-3.5,3.4-3.6c0.5,0,45.7-0.8,49.9,52.8c0.1,1.9-1.3,3.6-3.2,3.8
			C501.3,1116.1,501.2,1116.1,501.1,1116.1z"/>
	</g>
	<g>
		<path class="st14" d="M510.3,1087.4c-1.6,0-3-1-3.4-2.6c-7-27.2-29-28-29.9-28c-1.9,0-3.5-1.6-3.4-3.6c0-1.9,1.6-3.5,3.5-3.4
			c0.3,0,28.2,0.7,36.6,33.3c0.5,1.9-0.6,3.8-2.5,4.3C510.8,1087.4,510.5,1087.4,510.3,1087.4z"/>
	</g>
	<g>
		<path class="st14" d="M617.3,1174.8c-1.5-1-2-3-1.1-4.6c9.7-17.4,10.9-33.1,3.6-46.8c-5.4-10.2-13.6-15.3-13.7-15.4
			c-1.6-1-2.2-3.2-1.1-4.8c1-1.6,3.2-2.2,4.8-1.1c0.4,0.2,38.6,24.6,12.5,71.5c-0.9,1.7-3.1,2.3-4.8,1.4
			C617.4,1174.9,617.4,1174.8,617.3,1174.8z"/>
	</g>
	<g>
		<path class="st14" d="M640.7,1155.9c-1.3-0.9-1.9-2.5-1.4-4.1c9.2-26.6-8.7-39.3-9.5-39.9c-1.6-1.1-2-3.3-0.9-4.9
			c1.1-1.6,3.2-2,4.8-0.9c0.2,0.2,23.1,16.2,12.1,47.9c-0.6,1.8-2.6,2.8-4.5,2.2C641.2,1156.2,641,1156.1,640.7,1155.9z"/>
	</g>
</g>
<g>
	<g>
		<g id="с_9_">
			<path id="с_24_" class="st1" d="M2243,1599.3L2243,1599.3c-11.1,0-20.1-9-20.1-20.1v-356.9h40.3v356.9
				C2263.1,1590.3,2254.1,1599.3,2243,1599.3z"/>
			<path id="с_23_" class="st1" d="M2403.3,1599.3L2403.3,1599.3c-11.1,0-20.1-9-20.1-20.1v-356.9h40.3v356.9
				C2423.5,1590.3,2414.4,1599.3,2403.3,1599.3z"/>
			<path id="с_22_" class="st1" d="M2591.8,1599.3L2591.8,1599.3c-11.1,0-20.1-9-20.1-20.1v-356.9h40.3v356.9
				C2611.9,1590.3,2602.9,1599.3,2591.8,1599.3z"/>
			<path id="с_21_" class="st1" d="M2733.1,1599.3L2733.1,1599.3c-11.1,0-20.1-9-20.1-20.1v-356.9h40.3v356.9
				C2753.3,1590.3,2744.2,1599.3,2733.1,1599.3z"/>
			<path id="с_20_" class="st2" d="M2510.2,692.6v424.7c0,4.8-3.9,8.8-8.8,8.8h-263.3c-26.6,0-48.1,21.5-48.1,48.1l0,0
				c0,26.6,21.5,48.1,48.1,48.1h272.1h48.1c26.6,0,48.1-21.5,48.1-48.1v-48.1V692.6c0-26.6-21.5-48.1-48.1-48.1h0
				C2531.8,644.5,2510.2,666,2510.2,692.6z"/>
			<rect id="с_11_" x="2558.4" y="644.5" class="st2" width="208.2" height="489.4"/>
			<path id="с_10_" class="st1" d="M2718.4,692.6v424.7c0,4.8-3.9,8.8-8.8,8.8h-263.3c-26.6,0-48.1,21.5-48.1,48.1l0,0
				c0,26.6,21.5,48.1,48.1,48.1h272.1h48.1c26.6,0,48.1-21.5,48.1-48.1v-48.1V692.6c0-26.6-21.5-48.1-48.1-48.1h0
				C2740,644.5,2718.4,666,2718.4,692.6z"/>
		</g>
		<g>
			<path class="st14" d="M2381,501.1c-20.9-54.7-19.6-109,17.4-147.6c37.5-39.1,101.7-31.1,101.7-31.1l0,0c0,0,42.8-31.5,100.7,3.3
				c57.9,34.8,37.7,86.8,65.9,116.4c16.7,17.5,71.6,5.7,78,77.2c1.9,20.6-17.6,40.7-37,48c-34.1,12.7-70.5,9-80.5,26.7
				c-33.1,58.2-140.8,73.2-167.4,37c-8.2-11.2-93.5,40.9-110-47.4C2341.5,538.8,2399.7,550,2381,501.1z"/>
			<path class="st9" d="M2524.7,632c41,58.5-50.8,155.7-123.8,241.1c-29.3,20.4-32.3-80.7-32.3-80.7l48.1-76.9
				C2416.7,715.4,2477.7,615.8,2524.7,632z"/>
			<path class="st12" d="M2109.9,1357.6l-28,39.1c0,0-25,31.8-54.8,16.9c-29.8-15-16.6-62.8-16.6-62.8l34.2-45.1L2109.9,1357.6z"/>
			<g>
				<g>
					<g>
						<path class="st14" d="M2011.8,1345.7c0,0-30.1-0.3-62.8-11.4c-18.3-6.2-66.1-24.3-76.8,8.3c-1.6,4.9-0.9,11.7,8.1,22.1
							c13.2,15.3,33.5,32.2,80.9,46.9c56.9,17.6,61.5,27.7,83.2,33.1c22.5,5.6,30-25.8,38.7-51.4l0,0c-4,5.4-15.8,18.7-58.1,10.9
							C2012.3,1401.9,2048.4,1362.2,2011.8,1345.7z"/>
					</g>
				</g>
			</g>
			<path class="st12" d="M2346.8,1492.1v26.5c0,0-1.8,40.4-34.7,45.6c-32.9,5.2-50-41.4-50-41.4l1.2-41.8L2346.8,1492.1z"/>
			<path class="st12" d="M2524.8,560.4c0,0,6.3,57.5,8.3,78.6l77.4,2.3c-23.6-36.6-13-140.9-13-140.9L2524.8,560.4z"/>
			<g>
				
					<ellipse transform="matrix(0.9984 -5.719047e-02 5.719047e-02 0.9984 -23.4427 144.5336)" class="st12" cx="2513.4" cy="481.8" rx="98.2" ry="125.1"/>
				<path d="M2448.7,508.8c-0.9,5.1-5.8,8.6-10.9,7.7c-5.1-0.9-8.6-5.8-7.7-10.9c0.9-5.1,5.8-8.6,10.9-7.7
					C2446.2,498.7,2449.6,503.6,2448.7,508.8z"/>
				<path d="M2517.6,492.1c-1,5.6-6.2,9.3-11.8,8.3c-5.6-1-9.3-6.2-8.3-11.8c1-5.6,6.2-9.3,11.8-8.3
					C2514.8,481.2,2518.6,486.5,2517.6,492.1z"/>
				<g>
					<path class="st14" d="M2525.9,482.2c-0.8-0.1-1.5-0.5-2.1-1.1c-8.1-9.1-21.9-7.2-22.1-7.2c-1.9,0.3-3.7-1-4-3
						c-0.3-1.9,1-3.7,3-4c0.7-0.1,17.8-2.6,28.5,9.5c1.3,1.5,1.2,3.7-0.3,5C2528,482.1,2526.9,482.4,2525.9,482.2z"/>
				</g>
				<g>
					<path class="st14" d="M2421.2,499.3c-0.4-0.1-0.7-0.2-1.1-0.4c-1.7-0.9-2.4-3.1-1.4-4.8c7.3-13.4,21.4-13,22-12.9
						c2,0.1,3.5,1.7,3.4,3.7c-0.1,2-1.7,3.5-3.7,3.4c-0.5,0-10.3-0.2-15.4,9.2C2424.2,498.8,2422.7,499.5,2421.2,499.3z"/>
				</g>
				<path class="st7" d="M2465.8,513c-3.4,6.6-6.2,13.2-10,17.6c-1.3,1.5-1.2,3.8,0.3,5.1c5.9,5.6,18.7,7.9,26.4,8.7
					c1.1,0.1,1.6-1.4,0.5-1.9c-8.7-4-13-7.5-15-9.6c-1-1-1.4-2.5-1.2-3.9c0.6-3.2,1.7-9.8,2.2-15.1
					C2469.1,512.1,2466.6,511.4,2465.8,513z"/>
				<path class="st12" d="M2587.3,483.9c-9.4,13.2-8.2,30.2,2.6,37.9c10.8,7.7,27.2,3.2,36.7-10c9.4-13.2,8.2-30.2-2.6-37.9
					C2613.1,466.2,2596.7,470.7,2587.3,483.9z"/>
				<g>
					<path class="st7" d="M2604.1,514.4c-0.5-0.1-1-0.3-1.5-0.6c-6.6-4.9-9.2-11.8-6.9-18.5c2.4-6.9,9.1-11.8,16.1-11.6
						c2,0.1,3.5,1.7,3.5,3.6c-0.1,2-1.7,3.5-3.6,3.5c-3.8-0.1-7.9,2.9-9.2,6.8c-1.3,3.7,0.3,7.5,4.3,10.5c1.6,1.2,1.9,3.4,0.8,5
						C2606.8,514.1,2605.4,514.6,2604.1,514.4z"/>
				</g>
				<path class="st13" d="M2521,550.2c-0.5-2.6-1.9-4.7-4.2-3.5c-5.9,3-15.9,7.8-25.7,11.4c-9.8,3.6-20.5,6.4-27,7.9
					c-2.6,0.6-2.3,3.2-0.9,5.4c5.7,9.3,21,16.4,36.1,10.9C2514.4,576.8,2522.8,559.8,2521,550.2z"/>
			</g>
			<path class="st14" d="M2611.1,470.2c-62.7,10.1-165.6-26-182-55.4c0.3-41.4,56.7-79.1,97.1-72.1
				C2566.5,349.6,2622.3,414.8,2611.1,470.2z"/>
			<path class="st14" d="M2584.8,1110.2l-319.5-13.7c0,0-15.8-79.7-3.9-111.4c11.9-31.6,305.4-25.1,305.4-25.1L2584.8,1110.2z"/>
			<path class="st15" d="M2678.7,905.4c8.7,20,42.4,79.6,39.1,127.8c-3.4,49.8-38.5,93.2-98,92.3c0,0-112.1-63.8-87.9-194.3
				C2532,931.2,2590.7,908.3,2678.7,905.4z"/>
			<path class="st15" d="M2628.7,1136.9l-281.5,26.6c0,0-96.5-40.7-96-75.3c0.6-34.6,284.1-129.3,284.1-129.3
				C2701.7,910.3,2757.2,1116.8,2628.7,1136.9z"/>
			<path class="st15" d="M2251.3,1088.1l5.6,397c0,0,70.3,29.6,94.9,0.2c11.6-134.7,67-254.1,5.2-336.3
				C2274.2,1039.1,2251.3,1088.1,2251.3,1088.1z"/>
			<path class="st14" d="M2262,984.2l-234.2,321.7c0,0,52.3,69.9,88.8,61.7c63-79.7,190.4-173.1,191.2-273.4
				C2308.9,959.8,2262,984.2,2262,984.2z"/>
			<path class="st10" d="M2602.4,609.8l-81.3,12.5c-36.3,50.4-73.1,93.6-73.2,123.1c-0.1,38.8,82.1,208.2,82.1,208.2
				c70,9.2,127.1,0.4,170.3-27.7c-33.8-95.5,38.7-215.8-23.8-280.2C2660.8,629.5,2613.8,629.8,2602.4,609.8z"/>
			<g>
				<g>
					<g>
						<path class="st14" d="M2260,1517.9c0,0-24.6,17.3-57.7,27.2c-18.5,5.6-67.9,18.6-57.6,51.5c1.5,4.9,6.1,10,19.5,13.3
							c19.7,4.8,46,6.8,93.1-8.9c56.5-18.7,66.1-13.2,86.9-21.5c21.6-8.6,9.3-38.5,1.6-64.3l0,0c-0.1,6.7-2,24.4-40.9,42.7
							C2293.2,1563.4,2299.5,1510.1,2260,1517.9z"/>
					</g>
				</g>
			</g>
			<g>
				<path class="st3" d="M2463.7,759.7c-28.1-21.5-69.8-37.8-115.3-20c-112.7,44.2-86.8,182.8-2.6,219.6c8.4,3.7,17,6.3,25.7,7.9
					c23.1,4.3,43.4,17.4,56.5,36.9c15.3,22.7,37.1,41.5,64.3,53.1c73.5,31.5,127.9-11.8,161-84.6c34.1-75.2,31.7-153.6-43.7-186.6
					c-27.1-11.8-55.8-14.9-82.9-10.5C2504.3,779.2,2481.6,773.5,2463.7,759.7z"/>
				<polygon class="st8" points="2383.2,799 2346.2,886 2025.8,729.3 2048,677.1 				"/>
				<path class="st3" d="M2096.3,675.8l7.2,15.4c1.8,3.9,1.9,8.4,0.2,12.4l-20.7,48.6c-1.8,4.2-5.4,7.4-9.8,8.7l-15.3,4.5
					c-3.9,1.2-8.2,0.7-11.8-1.3l-109-61.1c-6.8-3.8-9.6-12.1-6.6-19.3l17.7-41.6c3-7.1,10.8-10.8,18.2-8.7l120.1,34.1
					C2090.9,668.8,2094.4,671.8,2096.3,675.8z"/>
				<path class="st8" d="M2455.2,819.4c27.3,11.6,39.5,44.4,27.3,73.2c-12.2,28.8-44.3,42.8-71.6,31.2
					c-27.3-11.6-39.5-44.4-27.3-73.2C2395.9,821.7,2427.9,807.8,2455.2,819.4z"/>
				<path class="st3" d="M2033,747.4l-9.7,15.1c-2.9,4.6-10.6,5.5-17,2.1l0,0c-6.5-3.5-9.3-10-6.4-14.7l9.7-15.1
					c2.9-4.6,10.6-5.5,17-2.1l0,0C2033.1,736.2,2035.9,742.8,2033,747.4z"/>
				<path class="st3" d="M1987.6,720.4l-9.7,15.1c-3,4.6-10.6,5.5-17,2.1l0,0c-6.5-3.5-9.3-10-6.4-14.7l9.7-15.1
					c2.9-4.6,10.6-5.5,17-2.1l0,0C1987.7,709.2,1990.5,715.8,1987.6,720.4z"/>
				<path class="st3" d="M2065.9,670l4.2-17.5c1.3-5.3-3.4-11.5-10.3-13.7l0,0c-7-2.2-13.7,0.3-15,5.6l-4.2,17.5
					c-1.3,5.3,3.4,11.5,10.3,13.7l0,0C2057.9,677.8,2064.6,675.3,2065.9,670z"/>
				<path class="st3" d="M2014.9,656l4.2-17.5c1.3-5.3-3.4-11.5-10.3-13.7l0,0c-7-2.2-13.7,0.3-15,5.6l-4.2,17.5
					c-1.3,5.3,3.4,11.5,10.3,13.7l0,0C2007,663.9,2013.7,661.4,2014.9,656z"/>
				<g>
					<path class="st16" d="M2564.6,901.6c-0.7,1.6-2.6,2.4-4.2,1.7l-561.7-238.7c-1.6-0.7-2.4-2.6-1.7-4.2c0.7-1.6,2.6-2.4,4.2-1.7
						l561.7,238.7C2564.5,898.1,2565.3,899.9,2564.6,901.6z"/>
				</g>
				<g>
					<path class="st16" d="M2554.3,925.7c-0.7,1.6-2.6,2.4-4.2,1.7l-561.7-238.7c-1.6-0.7-2.4-2.6-1.7-4.2c0.7-1.6,2.6-2.4,4.2-1.7
						l561.7,238.7C2554.3,922.2,2555,924.1,2554.3,925.7z"/>
				</g>
				<g>
					<path class="st16" d="M2544.1,949.8c-0.7,1.6-2.6,2.4-4.2,1.7l-561.7-238.7c-1.6-0.7-2.4-2.6-1.7-4.2c0.7-1.6,2.6-2.4,4.2-1.7
						l561.7,238.7C2544,946.3,2544.8,948.2,2544.1,949.8z"/>
				</g>
				<path class="st8" d="M2614.9,869.7l-57,134l0,0c-18.8-8-27.6-29.7-19.6-48.5l28-66C2574.4,870.5,2596.1,861.7,2614.9,869.7
					L2614.9,869.7z"/>
			</g>
			<path class="st9" d="M2666.1,640.4c69.9,14.8,69.2,148.5,74.2,260.7c-7.5,34.9-78.7-36.9-78.7-36.9l-17.3-89
				C2644.2,775.1,2620.7,660.7,2666.1,640.4z"/>
			<path class="st12" d="M2365.1,871.8c19.1,5.1,48.4,10,50.4,0c3.1-16.1-11.9-17.4-11-29.7c0.7-10.9,29.6-6.2,49.7,37.1l7.7-0.7
				l8.1,42.8l-7.7-0.5c-24.8,21.4-86.8,20.8-120.2-4.6C2308.3,890.3,2339.6,865,2365.1,871.8z"/>
			<path class="st12" d="M2158.7,810.8c-0.4-1.4-0.9-2.2-0.6-3.5c0,0-0.6-0.1-0.8,0.5c-11.7,4.9-24.3,1.6-27.2-7
				c-0.4-1.4-0.7-2.8-1.1-4.2c-8,0.3-15.3-3.2-17.4-9c-0.9-2.2-1-4.9-0.5-7.4c-8.2,1-15.4-2.6-18.6-9.9c-3.5-8.7,1.9-18.9,12.1-22.8
				c10.1-3.9,20.7-0.3,24.3,7.7c0.9,2.2,1.1,4.2,0.6,6.8c10.6-3.1,21.2,0.4,24.3,7.7c0.4,1.4,0.7,2.8,1.1,4.2
				c8.1-0.3,15.3,3.2,17.4,9c0.9,2.2,1,4.9,0.6,6.8c6.9-1.2,14.2,2.3,16.3,8.1c3.1,7.3-1.9,15.6-10,19.2
				C2171.2,820.8,2161.9,817.5,2158.7,810.8z"/>
			<path class="st9" d="M2459.7,877.9c0,0,184.9-23,209.1-18.4c24.3,4.6,72.5,16.7,71.1,40c-1.4,23.3-54.3,51.1-101.7,47.8
				c-47.4-3.3-172.2-23.3-172.2-23.3L2459.7,877.9z"/>
		</g>
	</g>
</g>
<g>
	<g>
		<path class="st7" d="M1596.3,1598c34.6-28.5-79.5-93.6-123-114.5l-17.1,20.4C1456.3,1503.8,1540.5,1643.9,1596.3,1598z"/>
		<g>
			<g>
				<g>
					<g>
						<path class="st7" d="M1476.5,1466.1c-0.8,8.5-6.6,19,0.5,23.4l-10.5,14.8l-10.2-0.5c-20.8-17.8-22.1-53.7-21.9-57.2
							c0.6-9.1,0.3-13.4,1.6-13.9c1.3-0.5,9.6-1.5,9.2,11.8c-0.5,16.7,14.2,7.8,6.8-27.3c-1.9-8.8,4.5-23.8,9.7-17.2
							C1467.5,1407.1,1479.9,1427.3,1476.5,1466.1z"/>
					</g>
				</g>
			</g>
		</g>
	</g>
	<g>
		<polygon class="st12" points="1697.3,1478.9 1605.8,1471.5 1597,1381.4 1677.6,1338.5 		"/>
		<path class="st12" d="M1535.3,1352.1c0.8,8.1,2.2,15.5,3.8,22.1c4.6,18,11.6,30.2,15.8,33.6c9.6,7.6,27.5,10.1,44.2,10.6
			c20,0.6,38.1-1.8,38.1-1.8s32-13.6,58.3-32.2c15-10.6,28.2-22.9,32.5-35.3c16-45.8-5.3-136-51.2-152
			c-45.8-16-100.8-7.6-120.7,36.7C1538,1274.3,1532.6,1324.6,1535.3,1352.1z"/>
		<path d="M1804.1,1321.8c35.1-27.1,26.6-55.8-0.3-78.5c-26.9-22.7-25.1-39.2-30.7-64.1c-5.4-23.6-54.3-64-90.7-42.9
			c-54.2,31.5-49.1-8.3-94.4,13.5c-40.9,19.7-46.4,58.9-39.2,80.5c7,20.9,47.8,2.1,38.2,23.1c-7.6,16.3,17.1,25.4,19.2,45.5
			c1.6,15.2,10.5,24.4,5.9,32.1c-8.9,14.9-29.5,34.2-4.8,68.2c14.1,19.4,31.2,4.3,47.7,24c31.2,37.3,55,13.9,84.7-1.8
			c29.7-15.7,56.8-4.7,48.1-51.5C1787.4,1368.2,1778.1,1341.9,1804.1,1321.8z"/>
		<g>
			<path class="st12" d="M1602.7,1286.9c-14.1,10.3-18.7,27.9-10.3,39.5c8.4,11.5,26.6,12.6,40.8,2.3c14.1-10.3,18.7-27.9,10.3-39.5
				C1635,1277.6,1616.8,1276.6,1602.7,1286.9z"/>
			<g>
				<path class="st7" d="M1609.3,1323.6c-0.5-0.3-1-0.7-1.3-1.2c-5.1-7.2-5.3-15.1-0.7-21.2c4.8-6.2,13.3-8.8,20.3-6.3
					c2,0.7,3,2.9,2.3,4.9c-0.7,2-2.9,3-4.9,2.3c-3.8-1.4-9,0.2-11.7,3.7c-2.6,3.4-2.3,7.7,0.8,12.1c1.2,1.7,0.8,4.1-0.9,5.3
					C1612.1,1324.2,1610.6,1324.3,1609.3,1323.6z"/>
			</g>
		</g>
	</g>
	<polygon class="st17" points="1627.5,1710.1 1546.3,1828.6 1452,1758.1 1576.9,1637.4 	"/>
	<path class="st18" d="M1417.2,1651l137.8,116c75.9-74.7,224.7,2.2,224.7,2.2s55.3,119.7-81.6,135.4
		C1439.9,1934,1260.2,1676.9,1417.2,1651z"/>
	<g>
		<path class="st7" d="M1448.7,1695.4c-40.4,19.4-55-111-55.7-159.3l29.3-7.4C1422.3,1528.7,1513.9,1664.1,1448.7,1695.4z"/>
		<g>
			<g>
				<g>
					<g>
						<path class="st7" d="M1379.6,1531.2c8.1,2.9,13.9,3,14.9,11.3l23.9-4.3l3.8-9.5c-7.4-26.4-39.4-42.6-42.7-43.9
							c-8.5-3.3-12.3-5.4-13.3-4.5c-1,1-5.4,8.1,6.8,13.3c15.3,6.6,1,16.2-27.6-5.4c-7.2-5.4-23.5-5.9-19.7,1.6
							C1329.9,1498.1,1342.9,1517.9,1379.6,1531.2z"/>
					</g>
				</g>
			</g>
		</g>
	</g>
	<path class="st8" d="M1544.4,1503.2c0,0,1.8-13.1,2.5-17.1h0c31.7-20,58.9-31.6,130.9-40.7c31.5-4,67.5,10.3,88.2,49.6
		c56,106.4,43.6,207.2,40.3,304.8c-114.9,32.9-213,31.9-268.1-48C1555.3,1706.7,1544.4,1503.2,1544.4,1503.2z"/>
	<path class="st12" d="M1477.9,1556.3c19.3-30.9,49.3-65.1,79.8-60.2c30.5,4.9,29.4,86.9,29.4,86.9s-120.1,146.5-161.1,108.4
		C1385,1653.3,1448.8,1602.9,1477.9,1556.3z"/>
	<path class="st19" d="M1473.2,1551.8c28.7-40.7,87.6-113.1,132.6-80.3c43.5,31.7,26.4,130-64.4,179.8
		C1515.1,1624.9,1473.2,1551.8,1473.2,1551.8z"/>
	<g>
		<path class="st20" d="M1341.8,1772.1c14.3-13.1,50.6-7.9,80.9,15.4c30.3,23.4,51.6,45.5,34.4,77.1
			C1411.4,1835.1,1341.8,1772.1,1341.8,1772.1z"/>
		<path class="st21" d="M1382.1,1854.5c38.6,23.3,65,25.1,71.8,15.4c13-18.5-3.4-41-39.1-70.9c-39.2-32.9-65.9-39-80.5-19.6
			C1319.6,1798.6,1340.2,1829.2,1382.1,1854.5z"/>
	</g>
	<g>
		<path class="st14" d="M1404.1,1447.9c-2.1,0-3.9-1.7-4-3.8l-1.6-42.8c-0.1-2.2,1.6-4.1,3.8-4.1c2.2-0.1,4.1,1.6,4.1,3.8l1.6,42.8
			c0.1,2.2-1.6,4.1-3.8,4.2C1404.2,1447.9,1404.1,1447.9,1404.1,1447.9z"/>
	</g>
	<g>
		<path class="st14" d="M1387.4,1445.9c-1.8,0-3.5-1.2-3.9-3.1l-16-69c-0.5-2.2,0.8-4.3,3-4.8c2.2-0.5,4.3,0.8,4.8,3l16,69
			c0.5,2.2-0.8,4.3-3,4.8C1388,1445.9,1387.7,1445.9,1387.4,1445.9z"/>
	</g>
</g>
<g>
	<g>
		<path class="st7" d="M791.6,1556.6c-23-38.5,106.7-62.6,154.7-67.6l8.9,26.3C955.3,1515.3,828.7,1618.8,791.6,1556.6z"/>
		<g>
			<g>
				<g>
					<g>
						<path class="st7" d="M948.9,1473c-2.2,8.3-0.2,20.1-8.4,21.9l4.9,17.5l9.8,3c25.6-9.7,38.9-43.1,39.9-46.5
							c2.5-8.8,4.3-12.7,3.2-13.6s-8.6-4.7-12.7,7.9c-5.2,15.8-16,2.5,2.9-28c4.7-7.6,3.8-23.9-3.4-19.5
							C977.3,1420.5,958.8,1435.3,948.9,1473z"/>
					</g>
				</g>
			</g>
		</g>
	</g>
	<polygon class="st12" points="717.2,1468.5 808.7,1461.1 817.5,1371 736.9,1328.1 	"/>
	<path class="st12" d="M871.9,1333.6c0.1,8.1-0.5,15.7-1.5,22.4c-2.7,18.4-1.3,29.7-5.2,33.5c-8.7,8.6-33.2,14.5-49.7,16.8
		c-19.8,2.7-38.1,2.3-38.1,2.3s-33.2-10.1-61.4-25.9c-16.1-9-30.5-19.8-36.1-31.6c-20.8-43.9-9.2-135.8,34.7-156.6
		c43.9-20.8,90-10,118.3,29.5C857.4,1258.1,871.7,1306,871.9,1333.6z"/>
	<polygon class="st22" points="787,1699.7 868.2,1818.1 962.5,1747.7 837.7,1626.9 	"/>
	<path class="st15" d="M997.3,1640.6l-137.8,116c-75.9-74.7-224.7,2.2-224.7,2.2s-55.3,119.7,81.6,135.4
		C974.6,1923.6,1154.3,1666.4,997.3,1640.6z"/>
	<g>
		<path class="st7" d="M967.3,1685.6c40.6,18.8,53.6-111.7,53.6-160l-29.4-7C991.4,1518.6,901.7,1655.2,967.3,1685.6z"/>
		<g>
			<g>
				<g>
					<g>
						<path class="st7" d="M1034.2,1520.5c-8,3-13.9,3.2-14.8,11.5l-24-4l-4-9.4c7-26.5,38.8-43.2,42.1-44.5
							c8.4-3.4,12.2-5.6,13.2-4.6c1,1,5.5,8-6.6,13.4c-15.2,6.8-0.8,16.2,27.5-5.7c7.1-5.5,23.4-6.2,19.8,1.3
							C1083.4,1486.8,1070.7,1506.8,1034.2,1520.5z"/>
					</g>
				</g>
			</g>
		</g>
	</g>
	<path class="st10" d="M870.2,1492.8c0,0-1.8-13.1-2.5-17.1h0c-31.7-20-58.9-31.6-130.9-40.7c-31.5-4-67.5,10.3-88.2,49.6
		c-56,106.4-43.6,207.2-40.3,304.8c114.9,32.9,213,31.9,268.1-48C859.2,1696.3,870.2,1492.8,870.2,1492.8z"/>
	<path class="st12" d="M936.6,1545.9c-19.3-30.9-49.3-65.1-79.8-60.2c-30.5,4.9-29.4,86.9-29.4,86.9s120.1,146.5,161.1,108.4
		C1029.5,1642.8,965.8,1592.4,936.6,1545.9z"/>
	<path class="st9" d="M953.1,1554.1c-28.7-40.7-99.4-125.8-144.4-93c-43.5,31.7-9.5,148.3,81.3,198.1
		C916.4,1632.8,953.1,1554.1,953.1,1554.1z"/>
	<g>
		<path class="st20" d="M1072.8,1761.6c-14.3-13.1-50.6-7.9-80.9,15.4c-30.3,23.4-51.6,45.5-34.4,77.1
			C1003.1,1824.6,1072.8,1761.6,1072.8,1761.6z"/>
		<path class="st21" d="M1032.5,1844.1c-38.6,23.3-65,25.1-71.8,15.4c-13-18.5,3.4-41,39.1-70.9c39.2-32.9,65.9-39,80.5-19.6
			C1095,1788.2,1074.3,1818.8,1032.5,1844.1z"/>
	</g>
	<g>
		<path class="st14" d="M800.7,1157.3c-39,0-87.2-29.9-139.6,15.8c-114.9,100.1,37.5,180.1,6.6,206
			c-58.3-10.1-235.2,14.6-165.7,72.5c-40.3,5-73.3,106.9,22.1,63c-14.8,29.4-29.4,123,81.3,62.8c36.9,85.6,129,2.3,134.5-89.4
			c1.5-25.6,0.3-59-20.4-79.9c53.7-12,80.3-51.4,73-130.5C866.1,1294.3,919.4,1157.1,800.7,1157.3z"/>
		<g>
			<path class="st12" d="M798,1275.9c15.1,8.7,21.6,25.8,14.5,38.2c-7.1,12.4-25.2,15.3-40.3,6.6c-15.1-8.7-21.6-25.8-14.5-38.2
				C764.8,1270.2,782.9,1267.2,798,1275.9z"/>
			<g>
				<path class="st7" d="M795.3,1313.2c0.5-0.3,0.9-0.8,1.2-1.3c4.3-7.7,3.7-15.6-1.6-21.1c-5.4-5.7-14.2-7.4-20.9-4.1
					c-1.9,0.9-2.7,3.2-1.7,5.1c0.9,1.9,3.2,2.7,5.1,1.7c3.7-1.8,9-0.7,12,2.5c2.9,3.1,3.1,7.4,0.5,12.2c-1,1.8-0.4,4.2,1.5,5.2
					C792.6,1314.1,794.1,1314,795.3,1313.2z"/>
			</g>
		</g>
		<path class="st23" d="M727.8,1409.1L727.8,1409.1c2-3.2,1-7.4-2.2-9.4l-46.6-29.1c-3.2-2-7.4-1-9.4,2.2l0,0c-2,3.2-1,7.4,2.2,9.4
			l46.6,29.1C721.6,1413.2,725.8,1412.3,727.8,1409.1z"/>
	</g>
	<g>
		<path class="st14" d="M1008.1,1434.4c-0.1,0-0.2,0-0.3,0c-2.5-0.2-4.4-2.3-4.2-4.8l3.6-55.5c0.2-2.5,2.3-4.4,4.8-4.2
			c2.5,0.2,4.4,2.3,4.2,4.8l-3.6,55.5C1012.4,1432.5,1010.5,1434.4,1008.1,1434.4z"/>
	</g>
	<g>
		<path class="st14" d="M1025.2,1439.9c-0.9,0-1.7-0.2-2.5-0.8c-2.1-1.4-2.6-4.2-1.2-6.2l58.7-87.7c1.4-2.1,4.2-2.6,6.2-1.2
			c2.1,1.4,2.6,4.2,1.2,6.2l-58.7,87.7C1028,1439.2,1026.6,1439.9,1025.2,1439.9z"/>
	</g>
	<g>
		<path class="st14" d="M1046.6,1460.5c-1.6,0-3.2-0.9-4-2.4c-1.1-2.2-0.3-4.9,1.9-6.1l52.8-27.4c2.2-1.1,4.9-0.3,6.1,1.9
			c1.1,2.2,0.3,4.9-1.9,6.1l-52.8,27.4C1048,1460.4,1047.3,1460.5,1046.6,1460.5z"/>
	</g>
</g>
<path class="st10" d="M1241,317.4c5.1-31.3,10.9-64.9,30.6-69.2c19.7-4.4,8,10.2,18.2,17.5c10.2,7.3,16,25.5,16,25.5L1241,317.4z"/>
<path class="st10" d="M1254.9,316.7c-33.5-35-72.1-50.3-90.4-39.3c-18.2,10.9,6.6,20.4-2.2,29.9c-8.7,9.5-8.7,26.2,4.4,24.8
	C1179.8,330.6,1254.9,316.7,1254.9,316.7z"/>
<path d="M1349.6,585.5c37.5-13.1,117.2-53.3,79.4-107.5c-37.7-54.2-53.8-31.5-39.3-96.7c14.5-65.2-31.4-117.2-75.9-104.6
	c-44.5,12.5-56.2,48.3-110.4,38.6c-54.2-9.7-99.9,40.6-80,84.9c20,44.3,28.5,65.6,9.1,89.8c-19.4,24.2-105.8,49.5-70.5,108.3
	c35.3,58.8,51.8,55.4,39,85.2c-12.8,29.8,15.6,64.2,65.6,60.1c50-4.1,95.4-22.5,114.3-78.1C1300,609.9,1349.6,585.5,1349.6,585.5z"
	/>
<path class="st12" d="M1243,1191.1c4.7-19.7,15.3-40.3,28.1-57.4c-9.5-53.6-24.3-154.1-9.9-199.8c3.9-12.3,106.9-28.4,101.8,69.1
	c-4.2,79.9-12.8,142-28.3,165.9c-5,14.1-70.5,172.7-70.5,172.7l-42.2-13.1C1246.8,1262.1,1232.1,1236.4,1243,1191.1z"/>
<path class="st12" d="M1075.6,1070c11-4.9,23.5-8.4,36.4-10.4c7-53.3,22.4-148,47.1-187.8c6.8-11,110.6-1,81.4,92.2
	c-29.2,93.2-46.3,151.7-80.3,160.5c-20.2,5.2-189.3,53.8-189.3,53.8l-17-41C1021.7,1116.4,1033,1089,1075.6,1070z"/>
<g>
	<path class="st12" d="M1319.3,585.2c2.8,53.3,61.1,62.2,143.2,78.9c26.6-1.5-12-59.2-12-59.2S1316.7,542.4,1319.3,585.2z"/>
	<path class="st12" d="M1482.2,475.5c0,0-40,112.8-39.5,131.2c0.6,18.4,3.9,55.4,21.3,57.1c17.3,1.7,37.8-38.6,40.8-74
		c3-35.4,8.2-106.6,8.2-106.6L1482.2,475.5z"/>
	<g>
		<g>
			<g>
				<g>
					<g>
						<path class="st12" d="M1534.8,466.8c-9.2,5.4-23.9,7-23.3,17.3l-30.8-9c3-33.8,39.8-62.6,43.5-64.9c9.6-6,13.7-9.4,15.2-8.4
							c1.5,0.9,8.5,8.6-5.2,17.8c-17.2,11.5,2.4,19.9,32.4-12.8c7.5-8.2,27.3-12.6,24.4-2.6C1587.9,415.3,1576.5,442.4,1534.8,466.8
							z"/>
					</g>
				</g>
			</g>
		</g>
	</g>
</g>
<g>
	<path class="st12" d="M1208.9,613.9c-15.8,62.3-81.7,30.4-163.2,10.7c-23.5-12.6,36-48.5,36-48.5S1222.2,576.4,1208.9,613.9z"/>
	<path class="st12" d="M1107.9,445.3c0,0-11.6,119.2-19.9,135.6c-8.3,16.4-27.1,48.5-43.5,42.7c-16.4-5.9-14.1-57.2-1.9-90.5
		c12.3-33.3,34-93.9,34-93.9L1107.9,445.3z"/>
</g>
<g>
	<g>
		<g>
			<g>
				<g>
					<path class="st12" d="M1061.6,423.5c5.8,8.9,18.3,17,13.1,25.9l31.6,5.8c12.5-31.6-7.5-73.9-9.8-77.6
						c-5.9-9.7-8.1-14.6-9.8-14.4c-1.7,0.2-11.4,3.9-3.3,18.2c10.2,18-11.1,16.8-23.3-26c-3-10.7-18.8-23.5-20.7-13.2
						C1037.2,353.6,1035.3,383,1061.6,423.5z"/>
				</g>
			</g>
		</g>
	</g>
</g>
<g id="c_9_">
	<path id="c_10_" class="st22" d="M1198.9,758.9c-46.9,34.2-39.2,63.8-62.1,113.4c-17.3,37.4-90.2,121.2-90.2,121.2
		s140.6,94.1,236.5,42.9c85.7-45.8,153.7,8.9,153.7,8.9s-0.3-159-77.5-286.4H1198.9z"/>
</g>
<path id="c_8_" class="st11" d="M1176.4,585.7c0.1,0.6,4.2,20-1,55.8c-5.4,36.8,7.7,111.8,23.6,117.4h160.5
	c20.7-16.3-12.7-188.1-14.7-188.4C1285.9,560.8,1228.5,567.7,1176.4,585.7z"/>
<g>
	<ellipse class="st12" cx="1264.8" cy="439.2" rx="85.8" ry="105.8"/>
	<path d="M1175.2,448.9c47.4-6.1,91.4-32.4,116.3-66.5c16.1,39.9,61,66.5,61,66.5s33.7-76.2-27.6-117.4
		C1266.5,292.3,1127,319.1,1175.2,448.9z"/>
	<path d="M1239.9,470.1c-5,0-9.1-4.1-9.1-9.1c0-5,4.1-9.1,9.1-9.1c5,0,9.1,4.1,9.1,9.1C1249,466,1244.9,470.1,1239.9,470.1z"/>
	<path d="M1319.1,470.6c-5,0-9.1-4.1-9.1-9.1c0-5,4.1-9.1,9.1-9.1c5,0,9.1,4.1,9.1,9.1C1328.3,466.5,1324.2,470.6,1319.1,470.6z"/>
	<g>
		<path d="M1335.2,453.3c-1.5,0-3-0.8-3.8-2.1c-2.3-3.8-5-6.1-8.1-6.8c-5.4-1.2-10.8,2.4-10.8,2.4c-2,1.4-4.7,0.9-6.1-1.1
			c-1.4-2-0.9-4.7,1.1-6.1c0.3-0.2,8.4-5.8,17.6-3.8c5.6,1.2,10.3,4.9,13.8,10.9c1.2,2.1,0.5,4.8-1.5,6
			C1336.7,453.1,1336,453.3,1335.2,453.3z"/>
	</g>
	<g>
		<path d="M1222.6,453.2c-1,0-1.9-0.3-2.7-1c-1.9-1.5-2.2-4.3-0.7-6.2c5.8-7.2,12.1-11.1,18.9-11.6c8.8-0.7,14.8,4.7,15.1,5
			c1.8,1.6,1.9,4.4,0.3,6.2c-1.6,1.8-4.4,1.9-6.2,0.3c-0.1-0.1-3.7-3.1-8.6-2.7c-4.3,0.4-8.5,3.2-12.7,8.4
			C1225.1,452.6,1223.8,453.2,1222.6,453.2z"/>
	</g>
	<path class="st12" d="M1191.8,438.6c9.8,12.5,10.3,28.5,1.1,35.7c-9.2,7.3-24.7,3.1-34.5-9.4c-9.8-12.5-10.3-28.5-1.1-35.7
		C1166.5,421.9,1182,426.1,1191.8,438.6z"/>
	<g>
		<path class="st7" d="M1183.2,465.5c-0.4,0-0.8-0.1-1.1-0.2c-1.5-0.6-2.2-2.3-1.6-3.8c2.1-4.9,2.1-8.9,0.1-11.8
			c-3.1-4.5-10.3-5.9-15.6-5.7c-1.6,0.1-3-1.2-3-2.8c-0.1-1.6,1.2-3,2.8-3c7.1-0.2,16.2,1.8,20.6,8.2c2.2,3.2,4.1,8.8,0.4,17.4
			C1185.4,464.8,1184.3,465.5,1183.2,465.5z"/>
	</g>
	<path class="st13" d="M1252.8,509.2c-1.1-2.1,0.5-4.7,2.6-4.2c5.2,1.2,13.9,3,22.3,3.7c8.4,0.7,17.3,0.5,22.6,0.3
		c2.1-0.1,3.2,2.7,1.8,4.6c-4.4,5.6-13.2,14-26,12.8C1263.3,525.4,1256.1,515.6,1252.8,509.2z"/>
	<path class="st7" d="M1287.3,470.3c0,0,3.8,10.7,9,17.5c-4.1,5.5-17,5.5-17,5.5l9.3-7.7C1288.7,485.7,1285.7,475.8,1287.3,470.3z"
		/>
</g>
<path class="st12" d="M1291.9,533.7l3.2,33.1c0,0-14.2,33.5-68,5.5l-4.1-44.1L1291.9,533.7z"/>
<g>
	<path class="st22" d="M971.6,1157.9c18.8,1.2,24.4,13.6,24.4,13.6c-28.9,35.6,11,91.3-38.4,103.1c-26.3-94.5-38.2-133.5-38.2-133.5
		c11.2-3.1,38.4-8.8,49.4-9.6l0.5,5.2L971.6,1157.9z"/>
	<path class="st13" d="M943,1272.7l-34.9-122.1c-0.9-3.1,0.9-6.4,4.1-7.3l8.7-2.5l38.2,133.5l-8.7,2.5
		C947.2,1277.7,943.9,1275.9,943,1272.7z"/>
</g>
<g>
	<path class="st22" d="M1247.6,1332.1c12.6-14,25.9-10.7,25.9-10.7c9.9,44.7,78.3,48.1,57,94.2c-90.4-38.1-128.3-53.1-128.3-53.1
		c4.6-10.7,16.9-35.5,23.2-44.7l4.4,2.9L1247.6,1332.1z"/>
	<path class="st13" d="M1319.8,1425.8l-117.4-48.6c-3-1.3-4.5-4.7-3.2-7.7l3.4-8.3l128.4,53.1l-3.4,8.3
		C1326.3,1425.7,1322.8,1427.1,1319.8,1425.8z"/>
</g>
<g>
	<path class="st14" d="M1565.9,499.1c-1.7,0-3.3-1.1-3.8-2.9c-0.6-2.1,0.6-4.3,2.7-5l0,0c0.2-0.1,19.9-6.1,42.7-25.4
		c21-17.8,48.9-50.9,62.8-107.5c0.5-2.1,2.7-3.5,4.8-2.9c2.1,0.5,3.5,2.7,2.9,4.8c-14.5,58.8-43.7,93.4-65.7,111.9
		c-24,20.3-44.4,26.4-45.2,26.7C1566.6,499.1,1566.2,499.1,1565.9,499.1z"/>
</g>
<g>
	<path class="st14" d="M1587.4,514.6c-1.7,0-3.2-1.1-3.8-2.7c-0.7-2.1,0.4-4.4,2.5-5.1c0.7-0.2,66.4-22.7,90.1-71.3
		c1-2,3.4-2.8,5.3-1.8c2,1,2.8,3.4,1.8,5.3c-25.1,51.7-91.9,74.5-94.7,75.4C1588.3,514.5,1587.9,514.6,1587.4,514.6z"/>
</g>
<g>
	<path class="st14" d="M1024.1,426.7c-1,0-1.9-0.3-2.7-1c-29.3-26.7-38.8-59.1-41.7-81.5c-3.1-24.3,0.7-42.1,0.9-42.8
		c0.5-2.2,2.6-3.5,4.8-3c2.2,0.5,3.5,2.6,3.1,4.8l0,0c0,0.2-3.7,17.4-0.7,40.4c3.9,30.6,17.1,56.3,39.1,76.3c1.6,1.5,1.7,4,0.3,5.7
		C1026.3,426.2,1025.2,426.7,1024.1,426.7z"/>
</g>
<g>
	<path class="st14" d="M1008.7,434.4c-0.4,0-0.8-0.1-1.2-0.2c-38.8-11.9-57.5-46.8-58.3-48.3c-1-2-0.3-4.4,1.7-5.4
		c2-1,4.4-0.3,5.4,1.7l0,0c0.2,0.3,18.1,33.4,53.6,44.3c2.1,0.7,3.3,2.9,2.6,5C1012,433.3,1010.4,434.4,1008.7,434.4z"/>
</g>
<path class="st1" d="M2036.2,261.9c-0.4-3-3.1-5.1-6.1-4.7c-2.1,0.3-3.9,1.7-4.5,3.8l-25.3,72.5c-3.1-0.6-6.3-0.6-9.4,0
	c-9.4,1.8-16.2,7.9-14.9,13.6c1.3,5.8,9.6,8.7,19.1,6.7c9.5-2.1,16.2-7.9,14.9-13.6l0,0l20.1-57.7c1.7,4.2,12.2,30.2,8.9,39.1
	c-0.6,2.9,1,5.8,3.9,6.6c2.9,0.8,5.9-0.9,6.7-3.8c0,0,0,0,0,0C2053.7,312.5,2037.5,271.5,2036.2,261.9z"/>
<path class="st24" d="M386.9,415.7c-2.4-1.9-5.8-1.5-7.7,0.9c-1.3,1.7-1.5,3.9-0.6,5.9l32.6,69.5c-2.6,1.7-4.9,4-6.7,6.6
	c-5.5,7.9-6.1,17-1.1,20.1c5,3.2,13-0.5,18.4-8.6c5.4-8.1,6.1-17,1.1-20.1l0,0l-25.9-55.4c4.1,1.8,29.8,13,33.7,21.7
	c1.6,2.5,4.8,3.4,7.4,2c2.6-1.5,3.6-4.8,2.1-7.4c0,0,0,0,0,0C434.8,439.5,394.5,421.6,386.9,415.7z"/>
<path class="st1" d="M855.9,585.7c0-3-2.5-5.4-5.5-5.4c-2.1,0-4,1.3-4.9,3.3l-33.1,69.3c-3-0.9-6.2-1.3-9.3-1.1
	c-9.6,0.7-17,6-16.3,11.9c0.7,5.9,8.6,9.7,18.3,8.7c9.7-1,17-6,16.3-11.9l0,0l26.4-55.2c1.2,4.4,8.8,31.3,4.6,39.9
	c-1,2.8,0.4,5.9,3.1,7c2.8,1.1,6-0.3,7.1-3.1c0,0,0,0,0,0C867.7,637.9,856.1,595.3,855.9,585.7z"/>
<path class="st1" d="M585.1,751c-2.2-2-5.7-1.9-7.7,0.3c-1.4,1.6-1.8,3.8-1,5.8l27.6,71.6c-2.8,1.6-5.2,3.6-7.2,6.1
	c-6,7.5-7.3,16.5-2.5,20c4.7,3.5,13,0.4,18.9-7.3c5.9-7.7,7.3-16.5,2.5-20l0,0l-22-57.1c4,2.1,28.8,15.1,32.1,24
	c1.4,2.6,4.5,3.7,7.2,2.6c2.7-1.3,3.9-4.5,2.6-7.3c0,0,0,0,0,0C631.2,778.2,592.3,757.5,585.1,751z"/>
<path class="st1" d="M1871.6,509.7L1871.6,509.7v-79.5c0-2.5-1.6-4.6-4-5.3l-53-14.2h-1.4h-0.8l0,0h-0.8h-1.2h-0.7l-1,0.8l-0.6,0.8
	c-0.2,0.3-0.4,0.6-0.5,1l0,0c0,0.3,0,0.5,0,0.8c0,0.2,0,0.4,0,0.7v76.8c-3.1,0.5-6.1,1.5-8.9,3.1c-8.3,4.8-12.7,12.8-9.6,17.8
	c3.2,5,12,5.1,20.3,0c8.3-5.1,12.7-12.8,9.6-17.8l0,0v-54.7l42.1,11.3v54.7c-3.1,0.5-6.1,1.5-8.9,3.1c-8.3,4.8-12.7,12.8-9.6,17.8
	c3.2,5,12,5.1,20.3,0C1871.3,521.6,1874.5,514.7,1871.6,509.7z"/>
<path class="st1" d="M2908.7,605.8L2908.7,605.8l29.5-73.8c0.9-2.3,0.2-4.9-1.8-6.4l-43.9-32.8l-1.3-0.5l-0.7-0.3l0,0l-0.7-0.3
	l-1.2-0.5l-0.6-0.2l-1.2,0.4l-0.8,0.5c-0.3,0.2-0.6,0.4-0.8,0.7l0,0c-0.1,0.2-0.2,0.5-0.3,0.7c-0.1,0.2-0.2,0.4-0.2,0.6l-28.5,71.3
	c-3.1-0.7-6.3-0.9-9.4-0.4c-9.5,1.4-16.5,7.1-15.5,12.9c1.1,5.8,9.2,9.2,18.8,7.5c9.6-1.6,16.5-7.1,15.5-12.9l0,0l20.3-50.8
	l34.9,26.1l-20.3,50.8c-3.1-0.7-6.3-0.9-9.4-0.4c-9.5,1.4-16.5,7.1-15.5,12.9c1.1,5.8,9.2,9.2,18.8,7.5S2909.5,611.5,2908.7,605.8z"
	/>
<path class="st24" d="M2374.1,190.7L2374.1,190.7l-33.1-49.1c-1-1.5-2.9-2.2-4.7-1.6l-38.7,13.3l-0.9,0.6l-0.5,0.3l0,0l-0.5,0.3
	l-0.8,0.5l-0.4,0.3l-0.3,0.9l0,0.7c0,0.3,0,0.5,0.1,0.8l0,0c0.1,0.2,0.2,0.3,0.3,0.5c0.1,0.1,0.2,0.3,0.3,0.4l32,47.4
	c-1.7,1.6-3.2,3.5-4.2,5.6c-3.1,6.4-2.5,13.2,1.5,15s9.5-1.8,12.5-8.4c3-6.6,2.5-13.2-1.5-15l0,0l-22.8-33.8l30.7-10.5l22.8,33.8
	c-1.7,1.6-3.2,3.5-4.2,5.6c-3.1,6.4-2.5,13.2,1.5,15c4,1.8,9.5-1.8,12.5-8.4C2378.9,198.2,2377.9,192.6,2374.1,190.7z"/>
<path class="st1" d="M757.3,468.9L757.3,468.9l-11.8-78.6c-0.4-2.4-2.3-4.3-4.8-4.6l-54.5-6.2l-1.4,0.2l-0.8,0.1l0,0l-0.8,0.1
	l-1.2,0.2l-0.7,0.1l-0.8,0.9l-0.5,0.8c-0.1,0.3-0.3,0.7-0.3,1l0,0c0,0.3,0.1,0.5,0.1,0.8c0,0.2,0.1,0.4,0.1,0.7l11.4,75.9
	c-3,0.9-5.9,2.4-8.3,4.4c-7.5,6-10.7,14.5-6.8,19c3.9,4.5,12.6,3.3,20-3c7.5-6.3,10.7-14.5,6.8-19l0,0l-8.1-54.1l43.3,5l8.1,54.1
	c-3,0.9-5.9,2.4-8.3,4.4c-7.5,6-10.7,14.5-6.8,19c3.9,4.5,12.6,3.3,20-3C758.7,480.7,760.8,473.4,757.3,468.9z"/>
<path class="st24" d="M359.4,718.8L359.4,718.8l10.9-78.7c0.3-2.4-1-4.8-3.3-5.8L316.5,613l-1.4-0.2l-0.8-0.1l0,0l-0.8-0.1l-1.2-0.2
	l-0.7-0.1l-1.1,0.6l-0.7,0.7c-0.2,0.3-0.4,0.6-0.6,0.9l0,0c-0.1,0.3-0.1,0.5-0.1,0.8c0,0.2-0.1,0.4-0.1,0.7L298.6,692
	c-3.2,0-6.3,0.6-9.2,1.8c-8.9,3.6-14.3,10.9-11.9,16.3c2.4,5.4,11.1,6.7,20.1,2.8c8.9-3.9,14.3-10.9,11.9-16.3l0,0l7.5-54.2l40.1,17
	l-7.5,54.2c-3.2,0-6.3,0.6-9.2,1.8c-8.9,3.6-14.3,10.9-11.9,16.3c2.4,5.4,11.1,6.7,20.1,2.8C357.5,730.6,361.6,724.1,359.4,718.8z"
	/>
<g>
	<path class="st1" d="M2069.4,1936.6c-14.1-57.8,5.3-116.4,58.3-175.7C2134.6,1840.2,2115.2,1898.8,2069.4,1936.6z"/>
	<path class="st1" d="M2154.9,1859.7c-4.8-54,20.8-104.1,76.8-150.2C2227,1781.9,2201.4,1831.9,2154.9,1859.7z"/>
	<path class="st1" d="M2244.4,1785.6c3.1-51.5,34.1-94.9,93.2-130.4C2323.2,1722.6,2292.1,1766.1,2244.4,1785.6z"/>
	<path class="st1" d="M2439.2,1635.4c-23.9,53.2-57.2,83.7-100.2,91.5C2350.8,1684.9,2384.2,1654.3,2439.2,1635.4z"/>
	<path class="st1" d="M2517.7,1646.3c-27.6,40.3-59.6,60.5-96,60.6C2437.5,1674,2469.5,1653.8,2517.7,1646.3z"/>
	<path class="st1" d="M2455.4,1724.9c26.5-25.1,63.6-32.5,111.3-22.2C2526.6,1730.4,2489.5,1737.8,2455.4,1724.9z"/>
	<path class="st1" d="M2235.6,1823.7c47.3-13,96.1,1.6,146.4,44.1C2316.7,1875.4,2267.9,1860.7,2235.6,1823.7z"/>
	<path class="st1" d="M2433.2,1819.6c-56.8,6.6-99.2-6.1-127.4-38.3C2347,1769.9,2389.4,1782.7,2433.2,1819.6z"/>
	<path class="st1" d="M2384.5,1752.5c41.2-11.3,83.6,1.5,127.4,38.3C2455,1797.4,2412.6,1784.6,2384.5,1752.5z"/>
	<path class="st1" d="M2154.2,1886.4c48.2-24.4,104.1-19.2,167.7,15.5C2253.1,1924.4,2197.2,1919.3,2154.2,1886.4z"/>
	<path class="st1" d="M2090.2,1943.6c45.4-29.3,101.6-30,168.4-2.1C2192.6,1971.1,2136.5,1971.8,2090.2,1943.6z"/>
	<path class="st1" d="M2442.4,1728.3c0,1.1-0.4,2.1-1.2,2.8l-1.7,1.5c-1,0.4-2.1,0.7-3.2,0.7l-0.2,0.5l-2.4-0.1
		c-27.1,1.9-63.7,14-109.9,36.1c-40.4,18.9-78.6,42.2-113.9,69.4c-17.9,13.5-35.1,27.9-51.5,43.2l-4.3,4c-31,29.2-45.8,40.5-63.4,58
		c-4.8,0.5-9.6,1-14.4,1.5c23.5-25.1,38.5-35.5,75.8-70.2c17.2-16,34.5-30.8,51.9-44.3c35.9-27.2,74.7-50.4,115.7-69.2
		c47.5-23,85.2-35.2,113-36.6l3.3-1.5c0.8-0.8,2-0.9,2.8-0.3c1.1,0,2.1,0.4,2.8,1.2C2442.2,1726.1,2442.5,1727.2,2442.4,1728.3z"/>
</g>
<g>
	<path class="st1" d="M1910.5,1960.4c-7.6,0.5-15.2,1.1-22.8,1.6c-22.6-30.2-31.2-70.9-25.9-122.2
		C1897.3,1880.7,1913.5,1921,1910.5,1960.4z"/>
	<path class="st1" d="M1917.2,1879.9c-30.1-34.4-37.5-81.1-22.4-140.2C1927.7,1791.2,1935.1,1837.9,1917.2,1879.9z"/>
	<path class="st1" d="M1946.6,1664c18.1,48.4,16,88.4-6.2,120C1921.6,1750.2,1923.7,1710.2,1946.6,1664z"/>
	<path class="st1" d="M2002.8,1622.1c7.7,42.5,0.1,75.2-22.8,97.9C1969.5,1689.4,1977.1,1656.8,2002.8,1622.1z"/>
	<path class="st1" d="M2012.4,1710.3c1.1-32.3,19.9-60.1,56.4-83.3C2060.7,1669.6,2041.9,1697.3,2012.4,1710.3z"/>
	<path class="st1" d="M1935.3,1909.4c21.7-37.7,61.6-58.8,119.7-63.3C2018.6,1891.5,1978.7,1912.6,1935.3,1909.4z"/>
	<path class="st1" d="M2057.4,1783.9c-31.7,39.5-66.4,57.9-104.2,55.1C1972.1,1806.2,2006.8,1787.8,2057.4,1783.9z"/>
	<path class="st1" d="M1984.9,1771.9c18.9-32.7,53.6-51.1,104.2-55.1C2057.3,1756.3,2022.6,1774.7,1984.9,1771.9z"/>
	<path class="st1" d="M2007.2,1725.1c-0.4,0.9-0.9,1.8-1.6,2.5l0.2,0.4l-1.6,1.4c-15.9,18.1-31.5,48.5-46.8,91.1
		c-13.7,37-23.3,75.5-28.7,114.6c-1.2,8-2.2,16.1-3,24.2c-2.8,0.2-5.5,0.4-8.3,0.6c0.8-8.8,1.8-17.5,2.9-26.1
		c5.8-39.5,15.8-78.2,29.9-115.6c15.6-44.1,31.8-75.2,48.5-93.4l1.1-3c0-1,0.7-1.8,1.6-1.9c0.7-0.7,1.6-1,2.5-1
		c0.9,0.3,1.8,0.9,2.4,1.6c0.7,0.7,1,1.6,1,2.5L2007.2,1725.1z"/>
	<path class="st1" d="M2038.4,1905c-9.6,18.6-20.2,34.5-31.7,47.7c-19.8,1.8-39.7,3.5-59.8,5
		C1967.3,1934.1,1997.8,1916.6,2038.4,1905z"/>
</g>
</svg>
